<svg width="334" height="85" viewBox="0 0 334 85" fill="none" xmlns="http://www.w3.org/2000/svg">
<path d="M124.835 46.9382V80.7031H134.259V64.7236L140.122 78.7118H149.546L155.409 64.7236V80.7031H164.833V46.9382H153.467L144.834 67.7289L136.201 46.9382H124.835ZM186.577 55.398C192.068 55.398 195.939 58.7003 195.939 63.7835C195.939 68.8668 192.068 72.1692 186.577 72.1692C181.085 72.1692 177.214 68.8668 177.214 63.7835C177.214 58.7003 181.085 55.398 186.577 55.398ZM186.577 46.5671C173.108 46.5671 166.998 54.2848 166.998 63.7835C166.998 73.2823 173.268 81 186.577 81C199.885 81 206.155 73.2823 206.155 63.7835C206.155 54.2848 200.045 46.5671 186.577 46.5671ZM206.836 46.9505V55.4598H220.787V80.7031H230.508V55.4598H244.459V46.9505H206.836ZM264.793 55.398C270.284 55.398 274.155 58.7003 274.155 63.7835C274.155 68.8668 270.284 72.1692 264.793 72.1692C259.301 72.1692 255.43 68.8668 255.43 63.7835C255.43 58.7003 259.301 55.398 264.793 55.398ZM264.793 46.5671C251.324 46.5671 245.214 54.2848 245.214 63.7835C245.214 73.2823 251.484 81 264.793 81C278.101 81 284.371 73.2823 284.371 63.7835C284.371 54.2848 278.261 46.5671 264.793 46.5671ZM307.302 46.5671C294.711 46.5671 287.723 51.1804 287.414 56.6719C286.598 71.056 315.007 65.7377 314.797 69.3615C314.636 72.3671 302.392 72.8122 300.4 70.2397H286.536C287.538 76.733 296.455 81 307.005 81C317.06 81 326.559 77.1287 327.004 69.3369C327.771 55.6948 298.978 61.7428 299.213 57.4882C299.349 54.9775 312.435 54.693 313.276 57.4263H326.213C325.384 50.1909 316.627 46.5671 307.302 46.5671Z" fill="#40B649"/>
<path d="M328.06 37.1336H328.803C329.283 37.1336 329.584 37.1131 329.703 37.0722C329.822 37.0314 329.917 36.9618 329.985 36.8621C330.053 36.7625 330.086 36.6391 330.086 36.4903C330.086 36.3228 330.041 36.1879 329.952 36.0849C329.864 35.9827 329.738 35.9165 329.575 35.8896C329.494 35.8789 329.25 35.8732 328.843 35.8732H328.06V37.1336ZM327.057 40V35.033H329.169C329.699 35.033 330.085 35.0771 330.325 35.1661C330.565 35.2553 330.758 35.4139 330.903 35.6427C331.048 35.8707 331.12 36.1324 331.12 36.4258C331.12 36.7976 331.01 37.1057 330.791 37.3485C330.573 37.592 330.244 37.7441 329.808 37.8078C330.026 37.9338 330.205 38.0735 330.345 38.2247C330.487 38.375 330.676 38.6448 330.917 39.0305L331.523 40H330.323L329.598 38.9194C329.341 38.532 329.164 38.2893 329.07 38.1888C328.975 38.0882 328.874 38.0195 328.768 37.9827C328.662 37.9444 328.494 37.9264 328.263 37.9264H328.06V40H327.057Z" fill="#40B649"/>
<path d="M329.022 31.3201C331.066 31.3201 332.729 29.6584 332.729 27.6141C332.729 25.57 331.066 23.9074 329.022 23.9074C326.978 23.9074 325.316 25.57 325.316 27.6141C325.316 29.6584 326.978 31.3201 329.022 31.3201ZM333.409 27.6141C333.409 30.036 331.445 32 329.022 32C326.6 32 324.636 30.036 324.636 27.6141C324.636 25.1915 326.6 23.2275 329.022 23.2275C331.445 23.2275 333.409 25.1915 333.409 27.6141Z" fill="#40B649"/>
<path d="M124.835 11.235V45H134.259V33.2751H155.322V23.8505H134.259V20.6595H157.116V11.235H124.835ZM159.268 11.235V44.9876H191.239V36.4783H168.841V11.235H159.268ZM193.404 11.235V45H202.828H225.684V35.5755H202.828V32.3721H223.891V23.8629H202.828V20.6595H225.684V11.235H202.828H193.404ZM227.836 11.235L242.072 28.1176L227.836 45H240.192L248.256 35.4394L256.32 45H268.676L254.428 28.1176L268.676 11.235H256.32L248.256 20.7956L240.192 11.235H227.836Z" fill="black"/>
<path fill-rule="evenodd" clip-rule="evenodd" d="M34.598 85H56.1759L42.6251 51.1358H52.9002C56.6678 51.1358 59.1565 50.8824 61.1281 51.7617C64.9618 53.4713 65.704 56.6839 66.5882 59.7848C67.822 64.1116 69.8874 68.3743 75.9141 68.2794L112.729 68.3202L105.808 50.8863L70.9253 50.8608C62.463 50.8608 61.9567 47.7214 60.5611 44.0589C58.7658 39.3481 58.0321 33.8466 51.7559 33.8466L35.6998 33.8287H14.1218L34.598 85ZM22.169 0.0141602L38.2251 0.032074C44.5014 0.032074 45.2351 5.53352 47.0303 10.2444C48.4259 13.9069 48.9323 17.0462 57.3946 17.0462L92.2777 17.0718L99.1986 34.5057L62.3833 34.4648C56.3566 34.5598 54.2912 30.297 53.0574 25.9703C52.1732 22.8693 51.4311 19.6568 47.5973 17.9471C45.6258 17.0678 43.137 17.3212 39.3694 17.3212H29.0944H22.169H7.51647L0.591064 0.0141602H22.169Z" fill="black"/>
</svg>
