<svg width="40" height="40" viewBox="0 0 40 40" fill="none" xmlns="http://www.w3.org/2000/svg">
<path d="M20 40C25.3043 40 30.3914 37.8929 34.1421 34.1421C37.8929 30.3914 40 25.3043 40 20C40 14.6957 37.8929 9.60859 34.1421 5.85786C30.3914 2.10714 25.3043 0 20 0C14.6957 0 9.60859 2.10714 5.85786 5.85786C2.10714 9.60859 0 14.6957 0 20C0 25.3043 2.10714 30.3914 5.85786 34.1421C9.60859 37.8929 14.6957 40 20 40ZM28.8281 16.3281L18.8281 26.3281C18.0938 27.0625 16.9062 27.0625 16.1797 26.3281L11.1797 21.3281C10.4453 20.5938 10.4453 19.4062 11.1797 18.6797C11.9141 17.9531 13.1016 17.9453 13.8281 18.6797L17.5 22.3516L26.1719 13.6719C26.9062 12.9375 28.0938 12.9375 28.8203 13.6719C29.5469 14.4062 29.5547 15.5937 28.8203 16.3203L28.8281 16.3281Z" fill="#40B649"/>
</svg>
