<svg width="25" height="29" viewBox="0 0 25 29" fill="currentColor" xmlns="http://www.w3.org/2000/svg">
  <path d="M12.5 14.4737C14.3944 14.4737 16.2112 13.7112 17.5508 12.3541C18.8903 10.9969 19.6429 9.15617 19.6429 7.23684C19.6429 5.31751 18.8903 3.47679 17.5508 2.11962C16.2112 0.762451 14.3944 0 12.5 0C10.6056 0 8.78878 0.762451 7.44924 2.11962C6.10969 3.47679 5.35714 5.31751 5.35714 7.23684C5.35714 9.15617 6.10969 10.9969 7.44924 12.3541C8.78878 13.7112 10.6056 14.4737 12.5 14.4737ZM9.94978 17.1875C4.45312 17.1875 0 21.6992 0 27.2682C0 28.1954 0.742188 28.9474 1.65737 28.9474H23.3426C24.2578 28.9474 25 28.1954 25 27.2682C25 21.6992 20.5469 17.1875 15.0502 17.1875H9.94978Z"/>
</svg>
