<svg width="25" height="19" viewBox="0 0 25 19" fill="currentColor" xmlns="http://www.w3.org/2000/svg">
  <path d="M12.5 9.375C5.5957 9.375 0 7.27539 0 4.6875C0 2.09961 5.5957 0 12.5 0C19.4043 0 25 2.09961 25 4.6875C25 7.27539 19.4043 9.375 12.5 9.375ZM21.8896 9.46289C23.0957 9.00879 24.1797 8.4375 25 7.72461V14.0625C25 16.6504 19.4043 18.75 12.5 18.75C5.5957 18.75 0 16.6504 0 14.0625V7.72949C0.820312 8.44238 1.9043 9.01367 3.11035 9.46777C5.59082 10.3955 8.91113 10.9375 12.5 10.9375C16.0889 10.9375 19.4092 10.3955 21.8896 9.46289Z"/>
</svg>
