<svg width="40" height="40" viewBox="0 0 40 40" fill="none" xmlns="http://www.w3.org/2000/svg">
<path d="M20 40C25.3043 40 30.3914 37.8929 34.1421 34.1421C37.8929 30.3914 40 25.3043 40 20C40 14.6957 37.8929 9.60859 34.1421 5.85786C30.3914 2.10714 25.3043 0 20 0C14.6957 0 9.60859 2.10714 5.85786 5.85786C2.10714 9.60859 0 14.6957 0 20C0 25.3043 2.10714 30.3914 5.85786 34.1421C9.60859 37.8929 14.6957 40 20 40ZM14.375 18.125H25.625C26.6641 18.125 27.5 18.9609 27.5 20C27.5 21.0391 26.6641 21.875 25.625 21.875H14.375C13.3359 21.875 12.5 21.0391 12.5 20C12.5 18.9609 13.3359 18.125 14.375 18.125Z" fill="#9B0101"/>
</svg>
