<svg width="30" height="30" viewBox="0 0 30 30" fill="none" xmlns="http://www.w3.org/2000/svg">
<path d="M24.0648 13.5518L24.7276 12.889L22.7392 10.9007L19.0969 7.25831L17.1086 5.26997L16.4458 5.93275L15.1202 7.25831L3.43655 18.942C2.82656 19.552 2.38079 20.3086 2.13445 21.1356L0.0581352 28.1974C-0.0884973 28.6901 0.0464046 29.2238 0.415918 29.5875C0.785432 29.9511 1.31331 30.086 1.80599 29.9453L8.86195 27.869C9.68896 27.6226 10.4456 27.1769 11.0556 26.5669L22.7392 14.8832L24.0648 13.5518ZM9.38396 23.4289L8.85022 24.7604C8.6156 24.9422 8.35167 25.0771 8.07013 25.1651L3.48347 26.5141L4.83249 21.9333C4.9146 21.6459 5.05537 21.3819 5.23719 21.1532L6.56862 20.6195V22.4964C6.56862 23.0125 6.99092 23.4348 7.50706 23.4348H9.38396V23.4289ZM21.2729 1.09974L20.4283 1.95021L19.1028 3.27577L18.4341 3.93855L20.4225 5.92688L24.0648 9.56923L26.0531 11.5576L26.7159 10.8948L28.0415 9.56923L28.8919 8.71877C30.3583 7.25244 30.3583 4.877 28.8919 3.41067L26.5869 1.09974C25.1206 -0.366581 22.7451 -0.366581 21.2788 1.09974H21.2729ZM18.4928 10.9534L10.0467 19.3995C9.68309 19.7631 9.08483 19.7631 8.72118 19.3995C8.35753 19.0358 8.35753 18.4376 8.72118 18.0739L17.1672 9.62789C17.5309 9.26424 18.1291 9.26424 18.4928 9.62789C18.8564 9.99154 18.8564 10.5898 18.4928 10.9534Z" fill="#4338CA"/>
</svg>
