<svg width="100" height="100" viewBox="0 0 333 85" fill="none" xmlns="http://www.w3.org/2000/svg">
<path d="M124.244 47.4963V81.2612H133.668V65.2817L139.531 79.2699H148.955L154.818 65.2817V81.2612H164.242V47.4963H152.876L144.243 68.287L135.61 47.4963H124.244ZM185.985 55.9561C191.477 55.9561 195.348 59.2584 195.348 64.3416C195.348 69.4249 191.477 72.7273 185.985 72.7273C180.494 72.7273 176.623 69.4249 176.623 64.3416C176.623 59.2584 180.494 55.9561 185.985 55.9561ZM185.985 47.1252C172.517 47.1252 166.407 54.8429 166.407 64.3416C166.407 73.8404 172.677 81.5581 185.985 81.5581C199.294 81.5581 205.564 73.8404 205.564 64.3416C205.564 54.8429 199.454 47.1252 185.985 47.1252ZM206.244 47.5086V56.0179H220.196V81.2612H229.917V56.0179H243.868V47.5086H206.244ZM264.202 55.9561C269.693 55.9561 273.564 59.2584 273.564 64.3416C273.564 69.4249 269.693 72.7273 264.202 72.7273C258.71 72.7273 254.839 69.4249 254.839 64.3416C254.839 59.2584 258.71 55.9561 264.202 55.9561ZM264.202 47.1252C250.733 47.1252 244.623 54.8429 244.623 64.3416C244.623 73.8404 250.893 81.5581 264.202 81.5581C277.51 81.5581 283.78 73.8404 283.78 64.3416C283.78 54.8429 277.67 47.1252 264.202 47.1252ZM306.711 47.1252C294.12 47.1252 287.132 51.7385 286.823 57.23C286.006 71.6141 314.416 66.2958 314.206 69.9196C314.045 72.9252 301.801 73.3703 299.809 70.7978H285.945C286.947 77.2911 295.864 81.5581 306.414 81.5581C316.469 81.5581 325.968 77.6868 326.413 69.895C327.18 56.2529 298.387 62.3009 298.622 58.0463C298.758 55.5356 311.843 55.2511 312.685 57.9844H325.622C324.793 50.749 316.036 47.1252 306.711 47.1252Z" fill="#40B649"/>
<path d="M327.469 46.2385H328.212C328.692 46.2385 328.993 46.2179 329.112 46.1771C329.231 46.1362 329.326 46.0667 329.394 45.967C329.462 45.8674 329.495 45.744 329.495 45.5952C329.495 45.4276 329.45 45.2928 329.361 45.1897C329.273 45.0876 329.147 45.0213 328.984 44.9944C328.903 44.9838 328.659 44.978 328.252 44.978H327.469V46.2385ZM326.466 49.1049V44.1379H328.578C329.108 44.1379 329.494 44.1819 329.734 44.271C329.974 44.3601 330.167 44.5188 330.312 44.7475C330.456 44.9756 330.529 45.2372 330.529 45.5307C330.529 45.9024 330.419 46.2106 330.2 46.4534C329.981 46.6969 329.653 46.849 329.217 46.9126C329.435 47.0386 329.614 47.1784 329.754 47.3296C329.896 47.4798 330.085 47.7497 330.326 48.1354L330.932 49.1049H329.732L329.007 48.0242C328.75 47.6368 328.573 47.3941 328.479 47.2936C328.384 47.1931 328.283 47.1243 328.177 47.0876C328.071 47.0493 327.903 47.0313 327.672 47.0313H327.469V49.1049H326.466Z" fill="#40B649"/>
<path d="M328.431 50.5173C330.475 50.5173 332.138 48.8557 332.138 46.8114C332.138 44.7672 330.475 43.1047 328.431 43.1047C326.387 43.1047 324.725 44.7672 324.725 46.8114C324.725 48.8557 326.387 50.5173 328.431 50.5173ZM332.818 46.8114C332.818 49.2332 330.854 51.1973 328.431 51.1973C326.009 51.1973 324.045 49.2332 324.045 46.8114C324.045 44.3888 326.009 42.4247 328.431 42.4247C330.854 42.4247 332.818 44.3888 332.818 46.8114Z" fill="#40B649"/>
<path d="M124.244 6.06241V39.8274H133.668V28.1025H154.731V18.6779H133.668V15.4869H156.525V6.06241H124.244ZM158.677 6.06241V39.815H190.648V31.3057H168.25V6.06241H158.677ZM192.813 6.06241V39.8274H202.237H225.093V30.4029H202.237V27.1995H223.3V18.6903H202.237V15.4869H225.093V6.06241H202.237H192.813ZM227.245 6.06241L241.481 22.945L227.245 39.8274H239.601L247.665 30.2668L255.729 39.8274H268.085L253.837 22.945L268.085 6.06241H255.729L247.665 15.623L239.601 6.06241H227.245Z" fill="white"/>
<path fill-rule="evenodd" clip-rule="evenodd" d="M34.0069 84.9858H55.5848L42.0341 51.1216H52.3091C56.0767 51.1216 58.5654 50.8682 60.537 51.7475C64.3708 53.4571 65.1129 56.6697 65.9971 59.7707C67.2309 64.0974 69.2963 68.3602 75.323 68.2652L112.138 68.3061L105.217 50.8721L70.3343 50.8466C61.872 50.8466 61.3656 47.7073 59.97 44.0448C58.1747 39.3339 57.4411 33.8324 51.1648 33.8324L35.1087 33.8145H13.5307L34.0069 84.9858ZM21.578 0L37.6341 0.0179138C43.9103 0.0179138 44.644 5.51936 46.4392 10.2302C47.8349 13.8927 48.3412 17.0321 56.8035 17.0321L91.6867 17.0576L98.6075 34.4915L61.7923 34.4507C55.7655 34.5456 53.7002 30.2829 52.4663 25.9561C51.5822 22.8552 50.84 19.6426 47.0062 17.933C45.0347 17.0537 42.546 17.3071 38.7783 17.3071H28.5033H21.578H6.9254L0 0H21.578Z" fill="white"/>
</svg>
