<svg width="25" height="28" viewBox="0 0 25 28" fill="currentColor" xmlns="http://www.w3.org/2000/svg">
<path d="M2.79671 0.920288H22.1598V0.926881H23.4169C24.0588 0.926881 24.5791 1.44719 24.5791 2.08903V26.4524C24.5791 27.0839 24.0754 27.5978 23.4478 27.6141V27.6185H19.5595V27.6045L11.2171 16.9267H5.07667V26.3974C5.07667 27.0393 4.55635 27.5596 3.91451 27.5596H1.53958C0.89774 27.5596 0.377426 27.0393 0.377426 26.3974V2.08432C0.377426 1.77609 0.499868 1.4805 0.717813 1.26255C0.93576 1.0446 1.23136 0.922163 1.53958 0.922163H2.79671V0.920288ZM7.63275 12.3389L7.64057 12.3328L5.07667 9.05114V12.3743H7.66041L7.63275 12.3389ZM19.8799 20.6536V5.80226H8.28928L13.4239 12.3743H19.3201L17.6106 16.9267H16.968L19.8799 20.6536Z" fill="white"/>
</svg>
