<svg width="29" height="30" viewBox="0 0 29 30" fill="currentColor" xmlns="http://www.w3.org/2000/svg">
<path d="M16.405 1.93C16.405 0.862469 15.5425 0 14.475 0C13.4075 0 12.545 0.862469 12.545 1.93V15.44C12.545 16.5075 13.4075 17.37 14.475 17.37C15.5425 17.37 16.405 16.5075 16.405 15.44V1.93ZM7.68984 7.27369C8.51009 6.59216 8.61866 5.37384 7.93713 4.55359C7.25559 3.73334 6.03728 3.62478 5.21703 4.30631C2.03253 6.96006 0 10.9648 0 15.44C0 23.4314 6.48359 29.915 14.475 29.915C22.4664 29.915 28.95 23.4314 28.95 15.44C28.95 10.9648 26.9114 6.96006 23.7269 4.30631C22.9067 3.62478 21.6884 3.73938 21.0068 4.55359C20.3253 5.36781 20.4399 6.59216 21.2541 7.27369C23.6003 9.22178 25.084 12.159 25.084 15.44C25.084 21.3024 20.3313 26.055 14.469 26.055C8.60659 26.055 3.85397 21.3024 3.85397 15.44C3.85397 12.159 5.34369 9.22178 7.68381 7.27369H7.68984Z" fill="#F8F5FF"/>
</svg>
