<svg width="22" height="22" viewBox="0 0 22 22" fill="none" xmlns="http://www.w3.org/2000/svg">
<path d="M17.8591 8.92953C17.8591 10.9 17.2194 12.7203 16.1418 14.1971L21.5768 19.6364C22.1135 20.173 22.1135 21.0445 21.5768 21.5811C21.0402 22.1178 20.1687 22.1178 19.6321 21.5811L14.1971 16.1418C12.7203 17.2237 10.9 17.8591 8.92953 17.8591C3.99682 17.8591 0 13.8622 0 8.92953C0 3.99682 3.99682 0 8.92953 0C13.8622 0 17.8591 3.99682 17.8591 8.92953ZM8.92953 15.1115C9.74136 15.1115 10.5452 14.9516 11.2953 14.6409C12.0453 14.3303 12.7268 13.8749 13.3008 13.3008C13.8749 12.7268 14.3303 12.0453 14.6409 11.2953C14.9516 10.5452 15.1115 9.74136 15.1115 8.92953C15.1115 8.1177 14.9516 7.31382 14.6409 6.56379C14.3303 5.81375 13.8749 5.13226 13.3008 4.55821C12.7268 3.98416 12.0453 3.5288 11.2953 3.21812C10.5452 2.90745 9.74136 2.74755 8.92953 2.74755C8.1177 2.74755 7.31382 2.90745 6.56379 3.21812C5.81375 3.5288 5.13226 3.98416 4.55821 4.55821C3.98416 5.13226 3.5288 5.81375 3.21812 6.56379C2.90745 7.31382 2.74755 8.1177 2.74755 8.92953C2.74755 9.74136 2.90745 10.5452 3.21812 11.2953C3.5288 12.0453 3.98416 12.7268 4.55821 13.3008C5.13226 13.8749 5.81375 14.3303 6.56379 14.6409C7.31382 14.9516 8.1177 15.1115 8.92953 15.1115Z" fill="#595959"/>
</svg>
