<svg width="29" height="29" viewBox="0 0 29 29" fill="currentColor" xmlns="http://www.w3.org/2000/svg">
  <path d="M14.475 28.95C18.314 28.95 21.9958 27.425 24.7104 24.7104C27.425 21.9958 28.95 18.314 28.95 14.475C28.95 10.636 27.425 6.95422 24.7104 4.23963C21.9958 1.52504 18.314 0 14.475 0C10.636 0 6.95422 1.52504 4.23963 4.23963C1.52504 6.95422 0 10.636 0 14.475C0 18.314 1.52504 21.9958 4.23963 24.7104C6.95422 27.425 10.636 28.95 14.475 28.95ZM13.118 19.4508V15.832H9.49922C8.7472 15.832 8.14219 15.227 8.14219 14.475C8.14219 13.723 8.7472 13.118 9.49922 13.118H13.118V9.49922C13.118 8.7472 13.723 8.14219 14.475 8.14219C15.227 8.14219 15.832 8.7472 15.832 9.49922V13.118H19.4508C20.2028 13.118 20.8078 13.723 20.8078 14.475C20.8078 15.227 20.2028 15.832 19.4508 15.832H15.832V19.4508C15.832 20.2028 15.227 20.8078 14.475 20.8078C13.723 20.8078 13.118 20.2028 13.118 19.4508Z"/>
</svg>
