<svg width="34" height="29" viewBox="0 0 34 29" fill="currentColor" xmlns="http://www.w3.org/2000/svg">
  <path d="M8.7367 5.51859L7.0501 10.3393H26.0356L24.349 5.51859C24.0582 4.69145 23.2763 4.13571 22.3975 4.13571H10.6882C9.8094 4.13571 9.02749 4.69145 8.7367 5.51859ZM2.55897 10.6495L4.83362 4.1551C5.70599 1.66721 8.05172 0 10.6882 0H22.3975C25.034 0 27.3797 1.66721 28.2521 4.1551L30.5267 10.6495C32.0259 11.2698 33.0857 12.7496 33.0857 14.475V23.7804V26.8821C33.0857 28.0259 32.1616 28.95 31.0179 28.95H28.95C27.8062 28.95 26.8821 28.0259 26.8821 26.8821V23.7804H6.20357V26.8821C6.20357 28.0259 5.2795 28.95 4.13571 28.95H2.06786C0.924074 28.95 0 28.0259 0 26.8821V23.7804V14.475C0 12.7496 1.05978 11.2698 2.55897 10.6495ZM8.27143 16.5429C8.27143 15.9944 8.05357 15.4685 7.66577 15.0807C7.27797 14.6929 6.752 14.475 6.20357 14.475C5.65514 14.475 5.12917 14.6929 4.74138 15.0807C4.35358 15.4685 4.13571 15.9944 4.13571 16.5429C4.13571 17.0913 4.35358 17.6173 4.74138 18.0051C5.12917 18.3929 5.65514 18.6107 6.20357 18.6107C6.752 18.6107 7.27797 18.3929 7.66577 18.0051C8.05357 17.6173 8.27143 17.0913 8.27143 16.5429ZM26.8821 18.6107C27.4306 18.6107 27.9565 18.3929 28.3443 18.0051C28.7321 17.6173 28.95 17.0913 28.95 16.5429C28.95 15.9944 28.7321 15.4685 28.3443 15.0807C27.9565 14.6929 27.4306 14.475 26.8821 14.475C26.3337 14.475 25.8077 14.6929 25.4199 15.0807C25.0321 15.4685 24.8143 15.9944 24.8143 16.5429C24.8143 17.0913 25.0321 17.6173 25.4199 18.0051C25.8077 18.3929 26.3337 18.6107 26.8821 18.6107Z"/>
</svg>
